# xmcd
#
# Track frame offsets:
#	150
#	15066
#	28333
#	41565
#	51622
#	66350
#	79216
#	92450
#	106207
#	117623
#	129457
#	139696
#
# Disc length: 2046 seconds
#
# Revision: 1
# Processed by: cddbd v1.5.1PL2 Copyright (c) Steve Scherf et al.
# Submitted via: audiograbber 1.83.01
#
DISCID=a207fc0c
DTITLE=Bert Kaempfert - Welterfolge
DYEAR=1900
DGENRE=
TTITLE0=Wunderland bei Nacht
TTITLE1=Morgen
TTITLE2=Echo in the night
TTITLE3=Catalinia
TTITLE4=Tenderly
TTITLE5=La vie en rose
TTITLE6=Mitternachtsblues
TTITLE7=Dreaming The Blues
TTITLE8=April in Portugal
TTITLE9=Cerveza
TTITLE10=Blue Moon
TTITLE11=Plaisir d'amour
EXTD=Schallplatte
EXTT0=
EXTT1=
EXTT2=
EXTT3=
EXTT4=
EXTT5=
EXTT6=
EXTT7=
EXTT8=
EXTT9=
EXTT10=
EXTT11=
PLAYORDER=
